# xmcd
#
# Track frame offsets:
#	150
#	17741
#	30887
#	46240
#	61396
#	79488
#	95162
#	114003
#	131898
#	150204
#	166343
#	181601
#	197771
#	213210
#	229945
#
# Disc length: 3349 seconds
#
# Revision: 1867334264
# Processed by: cddbd v1.5.2PL0 Copyright (c) Steve Scherf et al.
# Submitted via: EZCDAudioConverter 8.2.3.1
#
DISCID=b60d130f
DTITLE=Taylor Swift - Taylor Swift (Deluxe Edition)
DYEAR=2007
DGENRE=Country
TTITLE0=Tim McGraw
TTITLE1=Picture To Burn
TTITLE2=Teardrops On My Guitar (Radio Single Version)
TTITLE3=A Place In This World
TTITLE4=Cold As You Are
TTITLE5=The Outside
TTITLE6=Tied Together With A Smile
TTITLE7=Stay Beautiful
TTITLE8=Should've Said No
TTITLE9=Mary's Song (Oh My My My)
TTITLE10=Our Song (Radio Single Version)
TTITLE11=I'm Only Me When I'm With You
TTITLE12=Invisible
TTITLE13=A Perfectly Good Heart
TTITLE14=Taylor's 1st Phone Call With Tim McGraw
EXTD=
EXTT0=
EXTT1=
EXTT2=
EXTT3=
EXTT4=
EXTT5=
EXTT6=
EXTT7=
EXTT8=
EXTT9=
EXTT10=
EXTT11=
EXTT12=
EXTT13=
EXTT14=
PLAYORDER=
